<svg xmlns="http://www.w3.org/2000/svg" viewBox="0 0 818 198"><path d="M281.5 29.2c-5.5 1.6-14.3 3.5-19.5 4.3-5.2.7-11 1.8-12.9 2.4-1.8.6-11 1.8-20.3 2.8-15.8 1.6-17 1.6-19.7 0s-3-1.6-5 .1c-2.2 1.7-2.2 1.9-2.5 58.7-.3 40.9-.7 57.9-1.6 60.2-.6 1.8-2.6 4.1-4.6 5.2-3.5 2.1-4.1 3.9-2.4 7.2 2.1 3.8 9.8 1.2 14.5-5 1.8-2.3 2.1-4.8 2.7-22.1.3-10.7.7-22.7.7-26.6l.1-7.1 9.3-.7c9.3-.7 28.6-2.9 36.5-4.2 4-.6 5.8.5 3.2 2.1-.6.4-1.9 2.4-3.1 4.6-2.7 5.4-2.8 16.1-.1 22.2 4.1 9.3 12.5 15.2 28.5 20.2 8.1 2.5 9.2 2.7 14.7 1.6 9.6-1.9 12.8-3.7 16.1-8.9 1.6-2.6 3.4-6.3 4-8.4l1-3.7 3.5 3.9c4.7 5.2 17.2 14.7 21.2 16.1 2.6.9 3.7.8 5.7-.5 3.2-2.1 3.2-5.1.1-16-3.6-12.4-4.1-18.9-2.1-27.7 2.8-12.3 3.7-14.3 7.2-15.4 5-1.7 7.1-4.3 9.5-11.9 1.2-3.9 2.5-7.4 2.8-7.8 1-1.3 8 19.3 10.4 30.7 2.1 10 2.3 12.1 1.4 22.5-.5 6.3-.7 17.3-.4 24.5.5 11.7.8 13.2 2.7 14.8 1.9 1.5 2.5 1.6 4.3.4s2.3-3.2 3.5-14.1c1.3-12.5 1.3-13-1.3-26.1-3.3-16.9-3.4-24.5-.3-30.5 4.8-9.6 10.9-6.2 27.9 15.8 4.4 5.7 11.4 13.2 15.6 16.8l7.5 6.4h6.9c5.6 0 7.5.5 10.6 2.4 5.4 3.6 8.2 4 11.9 1.7 3.8-2.4 5.3-6.8 5.3-16.1l.1-6.5 4.9 9.5c7 13.5 14.6 20.8 19.7 18.9 3.6-1.3 3.7-4.8.4-13.9-5.2-14.2-7.3-26.3-6.9-39.5l.3-11.7 3.3-2.9c1.8-1.6 4.1-2.9 5.2-2.9 3.4 0 11.1 10.8 30 42.1 24.3 40.2 33.2 50.9 42.4 50.9 4.3 0 4.8-.3 15.9-8.7 8.2-6.2 9.3-8.2 10.7-17.6 1.6-11.4 1.2-15.1-1.9-15.5-3.5-.5-4.2.8-5.2 9.9-.5 4.5-1.5 9.4-2.2 10.8-1.3 2.6-13.6 12.6-16.9 13.7-2.9.9-9-3.6-15.7-11.8-6.5-7.8-10-13.5-23.5-38.3-9.8-17.8-19.8-33.5-25.1-39.1-3.3-3.5-3.7-3.6-8.5-3.2-5.5.6-9.8 3.7-12.7 9.3-3.4 6.4-2.4 36.3 1.7 50.6 1.6 5.5.4 4.4-3.9-3.3-3.7-6.5-9.9-24.1-13.2-37.2-.9-3.5-2.7-6.4-6.6-10.7-8.5-9.1-14.9-10-22.6-3-5.2 4.7-6.7 8.5-7.4 19-.6 9.8 2 22.2 6.3 30 2.9 5.3 2.9 5.1.3 5.1-3 0-13.9-10.8-22.1-22-7.2-9.7-10.3-13-17.2-18.1-7.1-5.3-16.4-3.1-20.1 4.7l-1.8 3.8-3.4-10.4c-6-18.6-7.5-27.1-7.8-43.1-.1-8.1-.5-15.1-.9-15.8-.9-1.5-5.3-1.4-6.2.1-.4.6-.9 7.8-1 15.9-.3 14.7-1.3 21.3-5.5 35-1.8 6.1-2.4 6.9-5.3 7.9-6.6 2.1-8.8 6-11.7 20.6-2 9.8-2.1 11.7-1 19.9.7 5 1.5 10.2 1.8 11.5l.6 2.3-3.3-1.9c-5.4-3.1-13.1-12.5-20.5-24.9-7.1-11.9-13-18.5-16.4-18.5-1.2 0-2.6-1.2-3.3-2.8-1.3-2.6-1.6-2.7-8.8-2.4-4 .1-11.2 1.2-15.9 2.3-18.1 4.4-42.4 7.9-54.7 7.9h-8.1l-.6-18.2c-.4-9.9-.7-21.6-.7-25.8v-7.8l11.8-1.2c6.4-.6 16.7-1.9 22.7-2.7 6.1-.9 14.4-1.9 18.5-2.3 7.8-.8 29.5-6.4 31.8-8.3 1.8-1.4 1.1-4.7-1.3-6.2-1.6-1-3.8-.7-12 1.7m177.3 51.4c1.9 1.3 2.2 2.4 2.2 8.1 0 3.7.9 10.1 2.1 14.4l2.1 7.7-2.5 4.8c-2.9 5.6-7 9.9-8.6 8.9-4.3-2.6-8.6-18.9-7.7-29.3 1.1-13.6 5.9-19.2 12.4-14.6m-168.3 21.2c.3 1.6 2.2 4.4 4.2 6.3 5.5 5.3 15.4 18.6 16.4 22.2 1.1 3.8-.4 9.1-3.4 12.4-2.9 3.2-11 4.8-17.5 3.4-10.2-2.2-21.7-9.4-24.6-15.5-2.1-4.4-2.1-11.8.1-16.3 2-4.4 10.9-11.1 17.6-13.4s6.4-2.4 7.2.9m175.1 29.9c-.3.3-1.3.3-2.2-.1-1.5-.6-1.5-.8.2-2.7l1.9-2.1.3 2.2c.2 1.2.1 2.4-.2 2.7"/><path d="M576.9 104.7c-2.3.6-3 3.8-1.2 6.2 2.4 3.4 7.3 2.1 7.3-1.9 0-1.5-3.1-5.2-4.1-4.9-.2.1-1.1.3-2 .6m-17 6c-2.3.6-3 3.8-1.2 6.2 2.4 3.4 7.3 2.1 7.3-1.9 0-1.5-3.1-5.2-4.1-4.9-.2.1-1.1.3-2 .6"/></svg>