<svg xmlns="http://www.w3.org/2000/svg" viewBox="0 0 818 198"><path d="M400.8 28.1c-1.4.8-1.5 3.1-1 20.3l.5 19.3-4 4.4c-6.5 7.1-6.6 7.6-5.9 22.9l.7 13.5-2.6 2.5c-3.2 3-4.4 2.4-9.7-4.6-2.8-3.6-3.8-5.9-3.8-8.6 0-2.3-1.4-6.4-3.8-11-3.2-6.4-4.1-7.3-6.7-7.6-1.7-.1-5.1-.5-7.6-.8-4.2-.5-5-.3-8.3 2.7-2.1 1.8-4.8 5.3-6.1 7.9l-2.4 4.7-8.8 1.8c-4.8 1-12.2 2.6-16.5 3.6-4.2 1.1-9.4 1.9-11.5 1.9h-3.9l-1.2-18.8c-.7-10.3-1.2-20.8-1.2-23.3v-4.6l8.8-.6c4.8-.4 13.7-2 19.7-3.7 6.1-1.6 13-3 15.5-3 5.2 0 6.5-.7 7.4-3.6.4-1.5.1-2.8-1.1-3.9-2.4-2.4-12-1.3-24.3 2.8-8.2 2.7-11 3.1-20.9 3.3-13.3.2-13.8.5-13.4 8.5.1 3 .4 26 .7 51.2.4 46.3.6 48.7 4.1 48.7.6 0 1.9-.8 2.9-1.8 1.4-1.6 1.7-5.2 2.3-22.3l.6-20.5 8.1-1.2c4.5-.7 13.4-2.3 19.9-3.6l11.8-2.3-.7 2.9c-1.1 5.1.5 15.4 3 19 4.1 6.2 12.4 8.4 18.2 4.9 2.3-1.4 9.7-9.2 13.2-14.1.2-.3 1 .4 1.8 1.4 4 5.6 10.8 7 18 3.7 3.3-1.5 4.5-2.8 6.3-7.2 2.1-4.8 2.2-6.1 1.5-12.9-1.5-13.2-1.2-16.3 1.8-20.2 1.5-1.9 3-4.8 3.4-6.4l.7-2.8 1.4 3.8c1.4 4.3 6.1 26.3 6.5 31.1.2 2.4.8 3.1 3 3.3 3.6.4 4.1-1.8 2.8-11.9-.5-4.6-1-11.7-1-15.9.1-7.4.1-7.5 1.5-4.2 3.9 9 15.5 21.7 22 24.2 3.8 1.5 7.7 1.2 10.4-.6 2.1-1.5 2.5-1.5 5.3.6 3.9 2.9 10 3 13.6.3 1.8-1.3 3.4-4.1 4.7-8l2-6.1 5.5 4.4c5.6 4.4 8.9 5.4 10.8 3.1 1.1-1.4.9-11-.7-25.6-.7-5.7-.9-10.6-.6-10.9 1-1 3.9 1.3 6.2 4.9 9.1 13.9 21 30.3 23.1 31.7 5.8 3.8 16.8-.3 19.7-7.1.7-1.8 1.6-7.9 2-13.6.4-5.8 1.1-11.7 1.5-13.3 1.2-3.9-1.7-7.6-4.7-6-2.1 1.2-3.3 5.4-5.3 20.2-1.3 9.1-3 12-7 12-3.4 0-5.6-2.7-16.2-19.4C504.2 54 500.3 50 495.6 50c-4.8 0-9.4 2.4-10.1 5.3-.3 1.2-.1 7.1.5 13.2.5 6 1 11.6 1 12.4 0 2.9-3.5-1.8-7.5-9.9-3-6.2-4.5-8.2-6.5-8.7-1.4-.3-3.8-1.7-5.3-3-3.5-2.8-6-2.9-9.7-.3-5.1 3.6-10.1 21.3-8.1 28.6.8 2.9.7 3.6-.9 4.4-3 1.6-5 1.2-9.1-2-3.5-2.9-12.9-15.6-12.9-17.7 0-.5-1.2-2.4-2.7-4.2-2.4-2.8-3.2-3.2-5.6-2.6-1.6.4-3.6 1.9-4.5 3.2-1.6 2.5-1.7 2.3-4.4-11.3-1.5-7.7-3.1-17.2-3.4-21.2-.7-7.7-2.3-10-5.6-8.1m61.8 48.3c-.7 3.6-4.5 9.1-4.6 6.5 0-1.8 2.9-11.9 3.9-13.4.9-1.5 1.4 3.2.7 6.9m6.8 11.3c-.9 6.8-2.8 8.6-6.3 6.4-1.1-.7-.7-1.8 2.2-5.2 2.1-2.3 3.7-4.6 3.7-5.1 0-.4.3-.8.6-.8s.2 2.1-.2 4.7m-104.5 18.1c.1 3.2-1.5 6-6.2 10.9-5.3 5.6-8.2 5.7-10.4.6-1.5-3.7-1.4-12.4.2-16.5.4-.9 3.2-2.7 6.3-4.1l5.7-2.5 2.2 4.7c1.2 2.5 2.2 5.6 2.2 6.9"/></svg>