<svg xmlns="http://www.w3.org/2000/svg" viewBox="0 0 820 200"><path d="M464.8 48.1c-3 1.1-8.3 9-19.5 28.9-10.5 18.6-19.5 36.2-24.9 48.3-4 9-4.5 11-3.3 11.8 2.5 1.6 4 1 7.2-2.8 15.2-17.7 30.6-34.3 31.8-34.3.3 0-2.1 5.3-5.3 11.8-7.3 14.3-8.3 19.8-4.5 23.6 3.5 3.5 9.6 3.5 16.2.2l4.8-2.5 2.9 2.5c1.6 1.3 3.9 2.4 5.1 2.4 3.9-.1 10.6-3.8 16.4-9.2 5.1-4.8 5.5-5.1 4.9-2.6-.8 3.4 1.5 9.2 4.2 10.7 2.8 1.5 7.2 1.3 10.2-.4 1.4-.7 3.6-1.1 5-.9 2.1.5 3.1-.3 6.5-4.8 10-13.2 29.6-33 31.2-31.5.3.3-1.7 4.1-4.5 8.4-5.7 9-7.7 13.3-8.7 19.2-.6 3.8-.4 4.4 2.9 7.7s4 3.6 8 3.2c4.4-.5 10.2-3.9 16.4-9.7 3.2-3 4.4-8.2 2.2-9.6-.6-.3-3.6 1.6-6.8 4.4-6 5.2-9.5 7-12.4 6.3-3.7-.8-1.6-6.1 8.1-21 7.4-11.4 9-15.4 7.2-17.6-3.5-4.2-12.6-1.5-21.5 6.5l-5 4.4 2.7-4.6c3-5.1 3.5-8.9 1.2-8.9-.9 0-3.1.6-4.9 1.4-2.9 1.2-5 4.1-13.5 18.4-10 16.9-14.1 21.8-17.9 21s.4-14.9 8.4-28.2c1.9-3.2 3.3-6.4 3-7.1-.7-2-4.2-2.4-7.1-.9-2.3 1.2-3 1.2-4.8-.1-9-6.3-32.5 9.3-38.2 25.2-2.7 7.6-10.9 14-13.6 10.7-.9-1.1.4-4.7 6.5-17.3 8.8-18 9.3-21.1 3.8-22.2-4.6-.9-9.8 2-19.4 11l-8.2 7.6 4.4-8c5.5-10 14.3-24.7 22.6-37.9 8.4-13.1 8.4-16.5.2-13.5m39.7 52.6c-6.9 10.6-23.5 27.3-27.2 27.3-4.2 0 2-12.5 10-20.3 5.1-4.9 13.4-9.7 17.1-9.7 1.8 0 1.8.1.1 2.7M350 48.7c-.8.3-4.1 2.2-7.3 4.1l-5.8 3.6-18.9.4c-20.7.5-28-.1-28-2.3 0-.8 1.2-1.8 2.7-2.1 2.6-.7 2.6-.7.5-1.5-5.4-2-12.2 2-12.2 7.1 0 6.8 9.6 9.6 30 8.7 7.4-.4 14.5-1 15.8-1.3 1.8-.5.5 1.7-6.2 11.1-4.7 6.4-8.9 12.3-9.3 13-.6.9-4.7 1.7-13.3 2.3-12.4 1-12.5 1-15.2 4.3-1.6 1.8-2.8 4.4-2.8 5.7 0 2 .4 2.3 2.8 1.8 4.8-.9 19.2-1.8 19.2-1.2 0 .3-4.3 7-9.5 14.8-11.2 16.7-11.8 19.3-4.6 19.3h4.4l10.8-17c6-9.3 11.7-17.3 12.6-17.6 1-.4 4-.4 6.6-.1 4.3.4 5.1.2 7.7-2.3 5.1-4.9 3.7-7.5-4.1-7.5-2.2 0-3.9-.5-3.9-1.1 0-1.2 2.3-4.5 13.8-20.2 4.8-6.5 7-8.7 8.7-8.7 4 0 12.3-3.2 15.7-6 3-2.5 3.1-3 2-5.4-1-2.3-1.7-2.6-5.9-2.5-2.7 0-5.5.3-6.3.6m50.3 40.7c-2.5 1.2-5.1 4.8-13.3 18.5-10 16.8-14.1 21.6-17.8 20.9-3.8-.8.4-14.9 8.4-28.2 1.9-3.2 3.3-6.4 3-7.1-.7-2-4.2-2.4-7.1-.9-2.3 1.2-3 1.2-4.8-.1-5.7-4-18.2.8-28.3 10.9-7.8 7.8-11.6 15.4-11.8 23.4 0 4.9.3 5.7 3.2 8.3 1.8 1.6 4.2 2.9 5.5 2.9 3.9-.1 10.6-3.8 16.4-9.2 5.1-4.8 5.5-5.1 4.9-2.6-.8 3.4 1.5 9.2 4.2 10.7 2.7 1.4 6.8 1.4 9.5-.1 1.2-.6 3.4-1.1 4.8-1 2.3.2 4.1-1.5 11.7-10.6C397.4 114.9 413.3 99 415 99c.4 0-.2 1.8-1.3 4.1-1.6 3.2-1.8 4.5-.9 6.5 2.5 5.3 7.7 1.2 13.9-11 2.9-5.6 2.2-9.1-2.1-10.2-3.6-.9-12 3.3-18.4 9.1l-5.3 4.8 3.2-5.1c4.7-7.5 3.1-10.8-3.8-7.8m-33.8 11.3c-6.9 10.6-23.5 27.3-27.2 27.3-4.2 0 2-12.5 10-20.3 5.1-4.9 13.4-9.7 17.1-9.7 1.8 0 1.8.1.1 2.7"/></svg>